<svg width="318" height="60" viewBox="0 0 318 60" fill="none" xmlns="http://www.w3.org/2000/svg">
<path d="M45.128 6.816L43.272 12.64C42.248 15.584 38.024 18.464 34.376 18.464H20.36L14.664 36H0.584L11.976 0.927998H40.072C42.632 0.927998 45.448 2.912 45.448 5.216C45.448 5.536 45.32 6.112 45.128 6.816ZM22.216 12.64H29.256L31.176 6.816H24.136L22.216 12.64ZM106.576 41.824L100.88 59.36H58.7675C55.3755 59.36 53.4555 57.248 53.4555 54.88C53.4555 54.304 53.5195 53.856 53.7115 53.536L65.0395 18.464H57.9995L52.3675 36H38.3515L49.7435 0.927998H63.6955L59.9835 12.64H66.9595L70.7355 0.927998H84.7515L73.3595 36C73.1675 36.448 73.1035 37.088 73.1035 37.792C73.1035 40.48 74.8955 41.824 78.4795 41.824H106.576ZM144.065 41.824L138.369 59.36H96.321C93.697 59.36 91.009 57.44 91.009 54.88C91.009 54.304 91.073 53.856 91.265 53.536L102.657 18.464H95.617L89.921 36H75.905L85.377 6.816C86.401 3.616 90.689 0.927998 94.273 0.927998H115.265C118.977 0.927998 120.833 2.208 120.833 4.704C120.833 5.28 120.705 5.984 120.449 6.816L110.913 36C110.721 36.512 110.657 37.088 110.657 37.792C110.657 40.48 112.449 41.824 116.033 41.824H144.065ZM97.473 12.64H104.513L106.369 6.816H99.393L97.473 12.64ZM189.419 41.824L183.723 59.36H141.675C138.027 59.36 136.235 58.016 136.235 55.328C136.235 54.88 136.363 54.24 136.555 53.536L142.251 36L133.931 18.464L128.235 36H114.219L125.611 0.927998H139.627L147.947 18.464L153.579 0.927998H167.659L156.331 36C156.075 36.64 155.947 37.28 155.947 37.856C155.947 40.48 157.739 41.824 161.387 41.824H189.419ZM213.564 41.824L207.868 59.36H165.82C162.748 59.36 160.508 57.504 160.508 55.008C160.508 54.496 160.572 53.984 160.7 53.536L175.932 6.816H168.892L170.748 0.927998H198.844L196.86 6.816H189.948L180.412 36C180.156 36.832 180.028 37.6 180.028 38.176C180.028 40.608 181.884 41.824 185.532 41.824H213.564ZM256.065 41.824L250.369 59.36H208.321C205.697 59.36 203.009 57.44 203.009 54.88C203.009 54.304 203.073 53.856 203.265 53.536L214.657 18.464H207.617L201.921 36H187.905L197.377 6.816C198.401 3.616 202.689 0.927998 206.273 0.927998H227.265C230.977 0.927998 232.833 2.208 232.833 4.704C232.833 5.28 232.705 5.984 232.449 6.816L222.913 36C222.721 36.512 222.657 37.088 222.657 37.792C222.657 40.48 224.449 41.824 228.033 41.824H256.065ZM209.473 12.64H216.513L218.369 6.816H211.393L209.473 12.64ZM274.091 18.464L262.699 53.536C261.675 56.608 256.939 59.36 253.803 59.36H211.691L217.387 41.824H245.483C250.091 41.824 253.035 39.904 254.315 36L258.091 24.288C258.347 23.584 258.475 22.944 258.475 22.24C258.475 19.744 256.683 18.464 253.035 18.464H239.019C235.435 18.464 233.643 17.056 233.643 14.304C233.643 13.792 233.707 13.216 233.835 12.64L235.819 6.816C236.779 4.064 240.811 0.927998 244.715 0.927998H265.771L263.787 6.816H249.835L247.915 12.64H268.907C272.555 12.64 274.347 13.92 274.347 16.544C274.347 17.248 274.283 17.888 274.091 18.464ZM303.919 0.927998H317.935L290.351 53.536C288.559 56.928 284.847 59.36 281.455 59.36H235.822L241.518 41.824H269.614C274.223 41.824 277.999 39.584 278.51 36L282.863 0.927998H296.879L292.847 24.288L303.919 0.927998Z" fill="#333333"/>
</svg> 