<svg width="477" height="89" viewBox="0 0 477 89" fill="none" xmlns="http://www.w3.org/2000/svg">
<path d="M67.192 9.224L64.408 17.96C62.872 22.376 56.536 26.696 51.064 26.696H30.04L21.496 53H0.376L17.464 0.391996H59.608C63.448 0.391996 67.672 3.368 67.672 6.824C67.672 7.304 67.48 8.168 67.192 9.224ZM32.824 17.96H43.384L46.264 9.224H35.704L32.824 17.96ZM159.363 61.736L150.819 88.04H87.6513C82.5633 88.04 79.6833 84.872 79.6833 81.32C79.6833 80.456 79.7793 79.784 80.0673 79.304L97.0593 26.696H86.4993L78.0513 53H57.0273L74.1153 0.391996H95.0433L89.4753 17.96H99.9393L105.603 0.391996H126.627L109.539 53C109.251 53.672 109.155 54.632 109.155 55.688C109.155 59.72 111.843 61.736 117.219 61.736H159.363ZM215.598 61.736L207.054 88.04H143.982C140.046 88.04 136.014 85.16 136.014 81.32C136.014 80.456 136.109 79.784 136.398 79.304L153.486 26.696H142.926L134.382 53H113.358L127.566 9.224C129.102 4.424 135.534 0.391996 140.91 0.391996H172.398C177.966 0.391996 180.75 2.312 180.75 6.056C180.75 6.92 180.558 7.976 180.174 9.224L165.87 53C165.582 53.768 165.486 54.632 165.486 55.688C165.486 59.72 168.174 61.736 173.55 61.736H215.598ZM145.71 17.96H156.27L159.054 9.224H148.59L145.71 17.96ZM283.629 61.736L275.084 88.04H212.013C206.541 88.04 203.853 86.024 203.853 81.992C203.853 81.32 204.045 80.36 204.333 79.304L212.877 53L200.397 26.696L191.853 53H170.829L187.917 0.391996H208.941L221.421 26.696L229.869 0.391996H250.989L233.997 53C233.613 53.96 233.421 54.92 233.421 55.784C233.421 59.72 236.109 61.736 241.581 61.736H283.629ZM319.846 61.736L311.302 88.04H248.23C243.622 88.04 240.262 85.256 240.262 81.512C240.262 80.744 240.358 79.976 240.55 79.304L263.398 9.224H252.838L255.622 0.391996H297.766L294.79 9.224H284.422L270.118 53C269.734 54.248 269.542 55.4 269.542 56.264C269.542 59.912 272.326 61.736 277.798 61.736H319.846ZM383.598 61.736L375.054 88.04H311.982C308.046 88.04 304.014 85.16 304.014 81.32C304.014 80.456 304.109 79.784 304.398 79.304L321.486 26.696H310.926L302.382 53H281.358L295.566 9.224C297.102 4.424 303.534 0.391996 308.91 0.391996H340.398C345.966 0.391996 348.75 2.312 348.75 6.056C348.75 6.92 348.558 7.976 348.174 9.224L333.87 53C333.582 53.768 333.486 54.632 333.486 55.688C333.486 59.72 336.174 61.736 341.55 61.736H383.598ZM313.71 17.96H324.27L327.054 9.224H316.59L313.71 17.96ZM410.637 26.696L393.549 79.304C392.013 83.912 384.909 88.04 380.205 88.04H317.036L325.58 61.736H367.725C374.637 61.736 379.053 58.856 380.973 53L386.637 35.432C387.021 34.376 387.213 33.416 387.213 32.36C387.213 28.616 384.525 26.696 379.053 26.696H358.029C352.653 26.696 349.965 24.584 349.965 20.456C349.965 19.688 350.061 18.824 350.253 17.96L353.229 9.224C354.669 5.096 360.717 0.391996 366.573 0.391996H398.157L395.181 9.224H374.253L371.373 17.96H402.861C408.333 17.96 411.021 19.88 411.021 23.816C411.021 24.872 410.925 25.832 410.637 26.696ZM455.378 0.391996H476.402L435.026 79.304C432.338 84.392 426.77 88.04 421.682 88.04H353.234L361.778 61.736H403.922C410.834 61.736 416.498 58.376 417.266 53L423.794 0.391996H444.818L438.77 35.432L455.378 0.391996Z" fill="white"/>
</svg>
